<svg width="135" height="58" viewBox="0 0 135 58" fill="none" xmlns="http://www.w3.org/2000/svg">
<path d="M39.707 0.703125L40.5391 0.714844C42.8203 0.769531 44.4062 1.19531 45.2969 1.99219C46.0703 2.67969 46.457 3.71094 46.457 5.08594C46.457 5.78125 46.2422 6.48828 45.8125 7.20703C45.3906 7.92578 44.8555 8.52344 44.207 9C45.1836 9.15625 46.0117 9.61719 46.6914 10.3828C47.3711 11.1406 47.7109 12.0938 47.7109 13.2422C47.7109 16.75 45.1172 18.5039 39.9297 18.5039C38.5391 18.5039 36.918 18.375 35.0664 18.1172C34.7305 18.0703 34.5117 17.6328 34.4102 16.8047C34.3789 16.5625 34.3633 16.3008 34.3633 16.0195L34.5039 8.28516C34.5039 5.23828 34.3516 3.48438 34.0469 3.02344C33.8984 2.8125 33.6367 2.69141 33.2617 2.66016C33.1523 2.39453 33.0977 2.11719 33.0977 1.82812C33.0977 1.53125 33.1055 1.34766 33.1211 1.27734V1.19531C33.707 1.07031 34.6367 0.957031 35.9102 0.855469C37.1914 0.753906 38.457 0.703125 39.707 0.703125ZM37.9375 14.1094L37.9141 14.9297C37.9141 15.8438 38.0742 16.4023 38.3945 16.6055C38.918 16.6602 39.3906 16.6875 39.8125 16.6875C40.2422 16.6875 40.6445 16.6602 41.0195 16.6055C41.4023 16.5508 41.7812 16.4492 42.1562 16.3008C42.5391 16.1523 42.8633 15.9609 43.1289 15.7266C43.7227 15.1875 44.0195 14.4102 44.0195 13.3945C44.0195 11.4023 42.6055 10.4062 39.7773 10.4062C39.2383 10.4062 38.6523 10.4414 38.0195 10.5117C38.0195 11.4336 37.9922 12.6328 37.9375 14.1094ZM42.1445 8.61328C42.8633 7.55078 43.2227 6.53906 43.2227 5.57812C43.2227 4.61719 42.9258 3.86719 42.332 3.32812C41.7383 2.78906 40.8125 2.51953 39.5547 2.51953C38.9453 2.51953 38.3125 2.58203 37.6562 2.70703C37.8359 3.54297 37.9375 4.34766 37.9609 5.12109C37.9844 5.89453 37.9961 6.60547 37.9961 7.25391C38.0039 7.90234 38.0117 8.39453 38.0195 8.73047C39.1133 8.63672 39.9648 8.58984 40.5742 8.58984C41.1836 8.58984 41.707 8.59766 42.1445 8.61328ZM51.8828 14.2266V4.82812C51.8828 3.84375 51.5977 3.21094 51.0273 2.92969C50.957 2.89063 50.8438 2.84766 50.6875 2.80078C50.5391 2.75391 50.4492 2.72266 50.418 2.70703C50.3008 2.55078 50.2422 2.29688 50.2422 1.94531C50.2422 1.58594 50.2539 1.33594 50.2773 1.19531C50.668 1.11719 51.3672 1.07812 52.375 1.07812C53.3828 1.07812 54.418 1.11719 55.4805 1.19531V14.2617C55.4805 15.0117 55.5312 16.0547 55.6328 17.3906L55.6797 18C55.0156 18.2031 54.2227 18.3047 53.3008 18.3047C52.3867 18.3047 51.8047 18.2031 51.5547 18C51.7734 16.3516 51.8828 15.0938 51.8828 14.2266ZM70.6211 14.6016L70.6094 13.8281C70.6094 12.8047 70.3906 12.2266 69.9531 12.0938C69.8828 12.0781 69.7891 12.0586 69.6719 12.0352C69.5547 12.0039 69.4688 11.9766 69.4141 11.9531C69.2734 11.7656 69.2031 11.5 69.2031 11.1562C69.2031 10.8125 69.2148 10.582 69.2383 10.4648C69.7617 10.4102 70.4141 10.3828 71.1953 10.3828C71.9766 10.3828 72.8203 10.4102 73.7266 10.4648C73.9688 10.7227 74.0898 11.1133 74.0898 11.6367C74.1211 12.0977 74.1367 12.6836 74.1367 13.3945C74.1367 14.1055 74.1055 14.9375 74.043 15.8906C73.7383 16.6094 73.0273 17.2109 71.9102 17.6953C70.8008 18.1719 69.5039 18.4102 68.0195 18.4102C66.2617 18.4102 64.6406 18.0156 63.1562 17.2266C62.3438 16.7969 61.6289 16.2695 61.0117 15.6445C60.4023 15.0117 59.9062 14.2031 59.5234 13.2188C59.1406 12.2344 58.9492 11.1523 58.9492 9.97266C58.9492 8.79297 59.1211 7.70703 59.4648 6.71484C59.8164 5.72266 60.3047 4.85938 60.9297 4.125C61.5547 3.39062 62.2969 2.76562 63.1562 2.25C64.8984 1.21094 66.9648 0.691406 69.3555 0.691406C70.6055 0.691406 71.8867 0.84375 73.1992 1.14844C73.3477 1.32031 73.4219 1.53906 73.4219 1.80469C73.4219 2.0625 73.4219 2.23047 73.4219 2.30859L73.2461 5.08594C72.7539 5.375 72.3086 5.51953 71.9102 5.51953C71.5117 5.51953 71.1914 5.46094 70.9492 5.34375C70.7148 5.22656 70.543 5.05859 70.4336 4.83984C70.2461 4.46484 70.1523 4.08984 70.1523 3.71484C70.1523 3.33984 70.1602 3.00391 70.1758 2.70703C69.7539 2.55078 69.1719 2.47266 68.4297 2.47266C67.6953 2.47266 67.0859 2.53906 66.6016 2.67188C66.1172 2.80469 65.6367 3.03516 65.1602 3.36328C64.6914 3.69141 64.2812 4.10156 63.9297 4.59375C63.1562 5.69531 62.7695 7.21094 62.7695 9.14062C62.7695 11.875 63.6641 13.918 65.4531 15.2695C66.4453 16.0195 67.5312 16.3945 68.7109 16.3945C69.2734 16.3945 69.6758 16.3555 69.918 16.2773C70.1602 16.1992 70.3594 16.0547 70.5156 15.8438C70.5859 15.7422 70.6211 15.3281 70.6211 14.6016ZM5.98047 43.6836V46.2617C5.98047 46.8945 6.02734 47.9062 6.12109 49.2969L6.16797 50C5.50391 50.2031 4.71094 50.3047 3.78906 50.3047C2.875 50.3047 2.29297 50.2031 2.04297 50C2.26953 48.3516 2.38281 47.0938 2.38281 46.2266V36.8281C2.38281 36.1328 2.32031 35.6875 2.19531 35.4922C2.07031 35.2969 1.98828 35.1719 1.94922 35.1172C1.91016 35.0547 1.83984 34.9961 1.73828 34.9414C1.64453 34.8789 1.57812 34.8359 1.53906 34.8125C1.45312 34.7734 1.31641 34.7227 1.12891 34.6602C0.972656 34.2383 0.917969 33.7578 0.964844 33.2188C3.16016 32.8828 5.49219 32.7148 7.96094 32.7148H8.64062C10.3047 32.7461 11.7188 33.1406 12.8828 33.8984C13.4531 34.2734 13.9023 34.7695 14.2305 35.3867C14.5664 36.0039 14.7344 36.6914 14.7344 37.4492C14.7344 38.1992 14.6484 38.8711 14.4766 39.4648C14.3047 40.0586 14.0078 40.6211 13.5859 41.1523C13.1719 41.6758 12.6406 42.1172 11.9922 42.4766C10.5859 43.25 8.58203 43.6523 5.98047 43.6836ZM11.2656 38.1172C11.2656 35.7188 10.0391 34.5195 7.58594 34.5195C6.90625 34.5195 6.27344 34.5586 5.6875 34.6367C5.88281 35.4961 5.98047 36.6641 5.98047 38.1406V41.8672C8.53516 41.7812 10.125 41.2734 10.75 40.3438C11.0938 39.8281 11.2656 39.0859 11.2656 38.1172ZM18.9297 46.2266V36.8281C18.9297 35.8438 18.6445 35.2109 18.0742 34.9297C18.0039 34.8906 17.8906 34.8477 17.7344 34.8008C17.5859 34.7539 17.4961 34.7227 17.4648 34.707C17.3477 34.5508 17.2891 34.2969 17.2891 33.9453C17.2891 33.5859 17.3008 33.3359 17.3242 33.1953C17.7148 33.1172 18.4141 33.0781 19.4219 33.0781C20.4297 33.0781 21.4648 33.1172 22.5273 33.1953V46.2617C22.5273 47.0117 22.5781 48.0547 22.6797 49.3906L22.7266 50C22.0625 50.2031 21.2695 50.3047 20.3477 50.3047C19.4336 50.3047 18.8516 50.2031 18.6016 50C18.8203 48.3516 18.9297 47.0938 18.9297 46.2266ZM39.8711 47.9844C38.3164 49.6016 36.332 50.4102 33.918 50.4102C31.6445 50.4102 29.7773 49.7188 28.3164 48.3359C27.5898 47.6406 27.0195 46.7305 26.6055 45.6055C26.1992 44.4727 25.9961 43.1016 25.9961 41.4922C25.9961 39.875 26.375 38.3828 27.1328 37.0156C27.8906 35.6484 28.9531 34.5898 30.3203 33.8398C31.6953 33.0898 33.2227 32.7148 34.9023 32.7148C36.5898 32.7148 38.1172 33.0352 39.4844 33.6758C39.625 33.8477 39.6953 34.0664 39.6953 34.332C39.6953 34.5898 39.6953 34.7578 39.6953 34.8359L39.5312 37.4258C39.1016 37.7148 38.6836 37.8594 38.2773 37.8594C37.8789 37.8594 37.5625 37.8008 37.3281 37.6836C37.0938 37.5586 36.9219 37.3867 36.8125 37.168C36.625 36.793 36.5312 36.418 36.5312 36.043C36.5312 35.6602 36.5391 35.3203 36.5547 35.0234C36.1172 34.7031 35.5352 34.543 34.8086 34.543C34.0898 34.543 33.5078 34.6172 33.0625 34.7656C32.625 34.9062 32.2109 35.1406 31.8203 35.4688C31.4297 35.7969 31.0977 36.207 30.8242 36.6992C30.2305 37.7695 29.9336 39.2266 29.9336 41.0703C29.9336 43.3984 30.4414 45.1875 31.457 46.4375C32.4805 47.6797 33.8047 48.3008 35.4297 48.3008C36.6094 48.3008 37.7773 47.8047 38.9336 46.8125C39.3867 47.0312 39.6992 47.4219 39.8711 47.9844ZM57.2852 35.7969C57.1992 36.3359 57.043 36.7227 56.8164 36.957C56.5977 37.1914 56.2109 37.3086 55.6562 37.3086C55.1016 37.3086 54.6445 37.1055 54.2852 36.6992V35.0469C53.3711 35.1172 52.3281 35.1641 51.1562 35.1875V45.3008C51.1562 47.0977 51.2539 48.6641 51.4492 50C50.8398 50.2031 50.0703 50.3047 49.1406 50.3047C48.2188 50.3047 47.5898 50.2031 47.2539 50L47.5586 46.2266V35.1875L44.2305 35.0703V36.6992C44.1289 36.8477 43.9414 36.9883 43.668 37.1211C43.3945 37.2461 43.0508 37.3086 42.6367 37.3086C42.2227 37.3086 41.9023 37.1914 41.6758 36.957C41.457 36.7227 41.3008 36.3398 41.207 35.8086C41.1211 35.2773 41.0781 34.7266 41.0781 34.1562C41.0781 33.5781 41.1523 33.2109 41.3008 33.0547C43.2773 33.1484 45.7852 33.1953 48.8242 33.1953C51.8633 33.1953 54.6562 33.1484 57.2031 33.0547C57.3516 33.2109 57.4258 33.5703 57.4258 34.1328C57.4258 34.6953 57.3789 35.25 57.2852 35.7969ZM73.5625 34.1328C73.5625 34.1328 73.5664 35.3398 73.5742 37.7539C73.5742 40.0586 73.5117 41.75 73.3867 42.8281C73.2695 43.8984 73.1289 44.7891 72.9648 45.5C72.8086 46.2031 72.6094 46.8086 72.3672 47.3164C72.125 47.8242 71.8281 48.2812 71.4766 48.6875C71.1328 49.0938 70.7266 49.4219 70.2578 49.6719C69.3125 50.1641 68.2266 50.4102 67 50.4102C65.7734 50.4102 64.7383 50.2344 63.8945 49.8828C63.0586 49.5234 62.3203 49.0078 61.6797 48.3359C61.0469 47.6641 60.5469 46.8008 60.1797 45.7461C59.8203 44.6914 59.6406 43.5039 59.6406 42.1836C59.6406 42.168 59.6406 42.1484 59.6406 42.125L59.6641 36.8281C59.6641 35.8125 59.5234 35.1953 59.2422 34.9766C59.1016 34.8594 58.8984 34.7695 58.6328 34.707C58.4844 34.5195 58.4102 34.25 58.4102 33.8984C58.4102 33.5469 58.4219 33.3125 58.4453 33.1953C58.8359 33.1172 59.4805 33.0781 60.3789 33.0781C61.2852 33.0781 62.2734 33.1172 63.3438 33.1953V35.2344L63.3203 41.2109C63.3125 41.375 63.3086 41.8555 63.3086 42.6523C63.3086 43.4492 63.4023 44.2852 63.5898 45.1602C63.7852 46.0352 64.0703 46.7188 64.4453 47.2109C65.1562 48.125 66.1953 48.582 67.5625 48.582C68.4141 48.582 69.0508 48.3203 69.4727 47.7969C70.0195 47.125 70.293 45.332 70.293 42.418V41.5742C70.2617 37.7227 70.2109 35.1406 70.1406 33.8281L70.1055 33.1719L73.2695 33.0078C73.4648 33.2188 73.5625 33.5938 73.5625 34.1328ZM89.8047 47.9258C89.9844 48.1055 90.1484 48.2383 90.2969 48.3242C90.4453 48.4023 90.5625 48.4453 90.6484 48.4531C90.7344 48.4609 90.8555 48.4648 91.0117 48.4648C91.1758 48.4648 91.3984 48.3906 91.6797 48.2422L92.0547 49.0859C91.5312 49.7344 90.8867 50.1914 90.1211 50.457C89.8008 50.5664 89.543 50.6211 89.3477 50.6211C88.6055 50.6211 87.9805 50.4336 87.4727 50.0586C86.9648 49.6836 86.5273 49.25 86.1602 48.7578C85.793 48.2656 85.4453 47.7031 85.1172 47.0703C84.5078 45.9141 84.0391 44.7383 83.7109 43.543C83.0078 43.6367 82.2383 43.6836 81.4023 43.6836V46.2617C81.4023 46.8945 81.4492 47.9062 81.543 49.2969L81.5898 50C80.9258 50.2031 80.1328 50.3047 79.2109 50.3047C78.2969 50.3047 77.7148 50.2031 77.4648 50C77.6914 48.3516 77.8047 47.0938 77.8047 46.2266V36.8281C77.8047 36.1328 77.7422 35.6875 77.6172 35.4922C77.4922 35.2969 77.4102 35.1719 77.3711 35.1172C77.332 35.0547 77.2617 34.9961 77.1602 34.9414C77.0664 34.8789 77 34.8359 76.9609 34.8125C76.875 34.7734 76.7383 34.7227 76.5508 34.6602C76.4336 34.3555 76.375 34.0547 76.375 33.7578C76.375 33.4531 76.3789 33.2656 76.3867 33.1953C78.4805 32.875 80.793 32.7148 83.3242 32.7148H83.9922C85.6562 32.7461 87.0781 33.1562 88.2578 33.9453C88.8359 34.3359 89.2969 34.8438 89.6406 35.4688C89.9844 36.0938 90.1562 36.8008 90.1562 37.5898C90.1562 38.9023 89.8398 40.0234 89.207 40.9531C88.582 41.875 87.5469 42.5703 86.1016 43.0391C86.7109 43.8594 87.2227 44.5625 87.6367 45.1484C88.0508 45.7344 88.3867 46.1992 88.6445 46.543C88.9023 46.8867 89.1133 47.1562 89.2773 47.3516C89.4492 47.5469 89.625 47.7383 89.8047 47.9258ZM86.6875 37.6133C86.6875 35.5508 85.4609 34.5195 83.0078 34.5195C82.5469 34.5195 82.0117 34.5508 81.4023 34.6133V41.8672C84.168 41.75 85.8203 41.0156 86.3594 39.6641C86.5781 39.0938 86.6875 38.4102 86.6875 37.6133ZM105.074 45.9922C105.645 45.9922 106.051 46.2227 106.293 46.6836C106.535 47.1445 106.656 47.8242 106.656 48.7227C106.656 49.6211 106.594 50.125 106.469 50.2344C103.703 50.1172 101.168 50.0508 98.8633 50.0352C96.5664 50.0195 95.0938 50.0078 94.4453 50C94.6719 48.1328 94.7852 46.0703 94.7852 43.8125V36.2188C94.7852 35.5391 94.6797 35.1016 94.4688 34.9062C94.375 34.8203 94.2383 34.7461 94.0586 34.6836C93.9414 34.5273 93.8828 34.2773 93.8828 33.9336C93.8828 33.582 93.8945 33.3359 93.918 33.1953C94.6133 33.1875 95.5898 33.1797 96.8477 33.1719C98.1055 33.1641 99.0781 33.1562 99.7656 33.1484C101.695 33.125 103.93 33.0625 106.469 32.9609C106.594 33.0703 106.656 33.5742 106.656 34.4727C106.656 35.3711 106.535 36.0508 106.293 36.5117C106.051 36.9727 105.598 37.2031 104.934 37.2031C104.27 37.2031 103.805 36.9961 103.539 36.582V35.1641C101.258 35.0547 99.4414 35 98.0898 35C98.2852 35.8594 98.3828 36.9141 98.3828 38.1641C98.3828 38.2578 98.3828 38.3477 98.3828 38.4336V40.6133L103.422 40.3555C103.547 40.5039 103.609 40.8047 103.609 41.2578C103.609 41.7031 103.57 42.1602 103.492 42.6289C103.062 42.6914 102.449 42.7227 101.652 42.7227C100.863 42.7227 99.7734 42.6445 98.3828 42.4883V44.7734C98.3828 44.8594 98.3828 44.9492 98.3828 45.043C98.3828 46.3008 98.2852 47.3516 98.0898 48.1953C99.4414 48.1953 101.258 48.1406 103.539 48.0312V46.6133C103.672 46.3555 103.977 46.1719 104.453 46.0625C104.641 46.0156 104.848 45.9922 105.074 45.9922Z" fill="#958F8F"/>
<g clip-path="url(#clip0_0_1)">
<path d="M128.554 37.7956L127.411 36.5852C126.674 35.8049 125.475 35.8049 124.738 36.5852L122.207 39.266L114 47.9587V52H117.816L126.07 43.2573L128.554 40.6264C129.3 39.8462 129.3 38.5758 128.554 37.7956ZM117.032 49.9994H115.889V48.789L124.068 40.1263L125.211 41.3367L117.032 49.9994ZM121.556 52L125.333 47.9987H131V52H121.556Z" fill="black"/>
</g>
<defs>
<clipPath id="clip0_0_1">
<rect width="25" height="25" fill="white" transform="translate(110 33)"/>
</clipPath>
</defs>
</svg>
